<?xml version="1.0" encoding="UTF-8" standalone="no"?>
<!DOCTYPE svg PUBLIC "-//W3C//DTD SVG 1.1//EN" "http://www.w3.org/Graphics/SVG/1.1/DTD/svg11.dtd">
<svg width="100%" height="100%" viewBox="0 0 1024 1024" version="1.1" xmlns="http://www.w3.org/2000/svg" xmlns:xlink="http://www.w3.org/1999/xlink" xml:space="preserve" xmlns:serif="http://www.serif.com/" style="fill-rule:evenodd;clip-rule:evenodd;stroke-linejoin:round;stroke-miterlimit:2;">
    <g transform="matrix(1.01587,0,0,1.02387,-16.254,-23.5491)">
        <ellipse cx="520" cy="523.061" rx="504" ry="500.061" style="fill:white;"/>
    </g>
    <path d="M481.81,1023.12C213.259,1007.48 0,784.446 0,512C0,229.42 229.42,0 512,0C794.58,0 1024,229.42 1024,512C1024,773.156 828.05,988.906 575.281,1020.12L575.281,823.405C637.945,810.102 688.531,785.772 727.04,750.414C765.548,715.056 793.379,676.372 810.533,634.363C827.687,592.004 836.264,549.819 836.264,507.81C836.264,457.399 825.411,410.313 803.707,366.553C782.002,322.793 755.396,290.761 723.889,270.457C692.732,250.152 652.123,240 602.062,240C569.854,240 544.299,246.476 525.395,259.429C506.84,272.032 494.938,288.486 489.687,308.79C484.435,328.745 481.81,357.276 481.81,394.384L481.81,740.962C425.097,728.709 382.388,701.403 353.681,659.044C325.325,616.334 311.147,567.848 311.147,513.586C311.147,411.013 347.38,347.649 419.846,323.494L438.225,241.575C379.412,240.175 327.25,265.206 281.74,316.667C236.58,367.779 214,434.818 214,517.787C214,607.407 242.356,680.748 299.069,737.811C355.782,794.874 416.695,823.405 481.81,823.405L481.81,1023.12ZM575.281,736.761L575.281,421.691C575.281,378.281 579.482,350.275 587.883,337.672C596.635,324.719 610.288,318.242 628.843,318.242C654.748,318.242 679.254,332.596 702.359,361.302C725.464,390.008 737.017,435.694 737.017,498.358C737.017,565.923 721.088,620.535 689.231,662.194C657.724,703.854 619.741,728.709 575.281,736.761Z" style="fill:rgb(3,83,136);"/>
</svg>
